# AST/ASF file generated using VICON BodyLanguage
# -----------------------------------------------
:version 1.10
:name VICON
:units
  mass 1.0
  length 0.45
  angle deg
:documentation
   .ast/.asf automatically generated from VICON data using
   VICON BodyBuilder and BodyLanguage model FoxedUp or BRILLIANT.MOD
:root
   order TX TY TZ RX RY RZ
   axis XYZ
   position 0 0 0  
   orientation 0 0 0 
:bonedata
  begin
     id 1 
     name lhipjoint
     direction 0.78388 -0.462562 0.414208 
     length 3.01181 
     axis 0 0 0  XYZ
  end
  begin
     id 2 
     name lfemur
     direction 0.34202 -0.939693 0  
     length 6.04673  
     axis 0 0 20  XYZ
    dof rx ry rz
    limits (-160.0 20.0)
           (-70.0 70.0)
           (-60.0 70.0)
  end
  begin
     id 3 
     name ltibia
     direction 0.34202 -0.939693 0   
     length 7.211   
     axis 0 0 20   XYZ
    dof rx
    limits (-10.0 170.0)
  end
  begin
     id 4 
     name lfoot
     direction 0.121887 -0.334882 0.934344   
     length 2.13567   
     axis -90 7.62852e-016 20   XYZ
    dof rx rz
    limits (-45.0 90.0)
           (-70.0 20.0)
  end
  begin
     id 5 
     name ltoes
     direction 1.53555e-011 -4.2179e-011 1   
     length 1.05957   
     axis -90 7.62852e-016 20   XYZ
    dof rx
    limits (-90.0 20.0)
  end
  begin
     id 6 
     name rhipjoint
     direction -0.769387 -0.475875 0.426129   
     length 2.92756  
     axis 0 0 0  XYZ 
  end
  begin
     id 7 
     name rfemur
     direction -0.34202 -0.939693 0   
     length 6.35468   
     axis 0 0 -20   XYZ
    dof rx ry rz
    limits (-160.0 20.0)
           (-70.0 70.0)
           (-70.0 60.0)
  end
  begin
     id 8 
     name rtibia
     direction -0.34202 -0.939693 0   
     length 7.37886   
     axis 0 0 -20   XYZ
    dof rx
    limits (-10.0 170.0)
 end
 begin
     id 9 
     name rfoot
     direction -0.101763 -0.279592 0.954711   
     length 2.21478  
     axis -90 -7.62852e-016 -20   XYZ
    dof rx rz
    limits (-45.0 90.0)
           (-20.0 70.0)
  end
  begin
     id 10 
     name rtoes
     direction -1.53494e-011 -4.21851e-011 1   
     length 1.10506   
     axis -90 -7.62852e-016 -20   XYZ
    dof rx
    limits (-90.0 20.0)
  end
  begin
     id 11 
     name lowerback
     direction 0.00747405 0.999267 0.0375481   
     length 2.13259   
     axis 0 0 0   XYZ
    dof rx ry rz
    limits (-20.0 45.0)
           (-30.0 30.0)
           (-30.0 30.0)
  end
  begin
     id 12 
     name upperback
     direction 0.00661626 0.996177 0.0871029   
     length 2.10528   
     axis 0 0 0   XYZ
    dof rx ry rz
    limits (-20.0 45.0)
           (-30.0 30.0)
           (-30.0 30.0)
  end
  begin
     id 13 
     name thorax
     direction 0.00320659 0.997679 0.0680167   
     length 2.11338   
     axis 0 0 0   XYZ
    dof rx ry rz
    limits (-20.0 45.0)
           (-30.0 30.0)
           (-30.0 30.0)
  end
  begin
     id 14 
     name lowerneck
     direction 0.0374841 0.973033 0.227602   
     length 1.42765   
     axis 0 0 0   XYZ
    dof rx ry rz
    limits (-20.0 45.0)
           (-30.0 30.0)
           (-30.0 30.0)
  end
  begin
     id 15 
     name upperneck
     direction 0.00481585 0.989155 -0.146795   
     length 1.47593   
     axis 0 0 0   XYZ
    dof rx ry rz
    limits (-20.0 45.0)
           (-30.0 30.0)
           (-30.0 30.0)
  end
  begin
     id 16
     name head
     direction -0.00292522 0.997206 -0.0746423  
     length 1.48116  
     axis 0 0 0   XYZ
    dof rx ry rz
    limits (-20.0 45.0)
           (-30.0 30.0)
           (-30.0 30.0)
  end
  begin
     id 17 
     name lclavicle
     direction 0.951444 0.305606 0.0368784  
     length 3.01855  
     axis 0 0 0   XYZ
    dof ry rz
    limits (-20.0 10.0)
           (0.0 20.0)
  end
  begin
     id 18 
     name lhumerus
     direction 1 -4.48977e-011 2.61664e-027   
     length 5.52731   
     axis 180 -30 -90   XYZ
    dof rx ry rz
    limits (-60.0 90.0)
           (-90.0 90.0)
           (-90.0 90.0)
  end
  begin
     id 19
     name lradius
     direction 1 -4.48944e-011 8.22157e-027   
     length 3.11059   
     axis 180 -30 -90   XYZ
    dof rx
    limits (-10.0 170.0)
  end
  begin
     id 20
     name lwrist
     direction 1 -4.48976e-011 1.5779e-026   
     length 1.5553   
     axis -1.15221e-014 90 90   XYZ
    dof ry
    limits (-180.0 0.0)
 end
  begin
     id 21 
     name lhand
     direction 1 -4.49025e-011 3.1558e-026   
     length 0.419626   
     axis -2.01367e-014 90 90   XYZ
    dof rx rz
    limits (-90.0 90.0)
           (-45.0 45.0)
  end
  begin
     id 22 
     name lfingers
     direction 1 -4.4904e-011 6.31161e-026   
     length 0.338313   
     axis -4.02734e-014 90 90   XYZ
    dof rx
    limits (0.0 90.0)
  end
  begin
     id 23
     name lthumb
     direction 0.707107 -6.35004e-011 0.707107   
     length 0.485752   
     axis -90 45 2.85299e-015   XYZ
    dof rx rz
    limits (-45.0 45.0)
           (-45.0 45.0)
  end
  begin
     id 24 
     name rclavicle
     direction -0.968876 0.223791 0.105816   
     length 3.04177  
     axis 0 0 0   XYZ 
    dof ry rz
    limits (-10.0 20.0)
           (-20.0 0.0)
  end
  begin
     id 25 
     name rhumerus
     direction -1 -4.48962e-011 -1.01384e-027  
     length 5.25396   
     axis 180 30 90   XYZ
    dof rx ry rz
    limits (-90.0 60.0)
           (-90.0 90.0)
           (-90.0 90.0)
  end
  begin
     id 26 
     name rradius
     direction -1 -4.48955e-011 8.88542e-027   
     length 3.10567   
     axis 180 30 90   XYZ
    dof rx
    limits (-10.0 170.0)
  end
  begin
     id 27 
     name rwrist
     direction -1 -4.48994e-011 1.5779e-026   
     length 1.55283   
     axis -1.15221e-014 -90 -90   XYZ
    dof ry
    limits (-180.0 0.0)
  end
  begin
     id 28
     name rhand
     direction -1 -4.48891e-011 3.1558e-026   
     length 0.498676   
     axis -2.01367e-014 -90 -90   XYZ
    dof rx rz
    limits (-90.0 90.0)
           (-45.0 45.0)
  end
  begin
     id 29
     name rfingers
     direction -1 -4.48972e-011 6.31161e-026   
     length 0.402045   
     axis -4.02734e-014 -90 -90   XYZ
    dof rx
    limits (0.0 90.0)
  end
  begin
     id 30
     name rthumb
     direction -0.707107 -6.34849e-011 0.707107   
     length 0.577259   
     axis -90 -45 -2.85299e-015   XYZ
    dof rx rz
    limits (-45.0 45.0)
           (-45.0 45.0)
  end
:hierarchy
  begin
    root lhipjoint rhipjoint lowerback
    lhipjoint lfemur
    lfemur ltibia
    ltibia lfoot
    lfoot ltoes
    rhipjoint rfemur
    rfemur rtibia
    rtibia rfoot
    rfoot rtoes
    lowerback upperback
    upperback thorax
    thorax lowerneck lclavicle rclavicle
    lowerneck upperneck
    upperneck head
    lclavicle lhumerus
    lhumerus lradius
    lradius lwrist
    lwrist lhand lthumb
    lhand lfingers
    rclavicle rhumerus
    rhumerus rradius
    rradius rwrist
    rwrist rhand rthumb
    rhand rfingers
  end

#!OML:ASF H:\Pregnant\Project 1\Capture day 1\Session 1\femalepreg.ASF
:FULLY-SPECIFIED
:DEGREES
34
root 5.53967 15.684 24.8685 181.391 -83.8588 -159.591
lowerback -16.6445 -0.185472 -2.46502
upperback -6.95485 -0.252802 -2.51802
thorax 1.91048 -0.321566 -1.30357
lowerneck -24.2363 5.68229 6.46574
upperneck 21.3712 7.61961 -7.91438
head 11.5575 2.90722 -2.70245
rclavicle -9.82703e-015 2.38542e-014
rhumerus -36.3388 -22.2569 -29.0579
rradius 33.3179
rwrist 5.6835
rhand -14.4736 -11.2443
rfingers 7.12502
rthumb 11.6724 -40.8991
lclavicle -9.82703e-015 2.38542e-014
lhumerus -16.593 14.0419 30.5409
lradius 27.3385
lwrist 22.2231
lhand -21.5551 0.938153
lfingers 7.12502
lthumb 4.83836 30.8629
rfemur -39.088 20.8347 17.2168
rtibia 33.8508
rfoot -12.9497 -18.8394
rtoes 2.1085
lfemur -26.9225 -13.8485 -16.6413
ltibia 15.9297
lfoot -8.10876 6.18063
ltoes -14.2948
35
root 5.55518 15.6844 24.8647 182.011 -83.542 -159.952
lowerback -16.5728 -0.230365 -2.69059
upperback -6.97522 -0.284899 -2.52689
thorax 1.85043 -0.33502 -1.19021
lowerneck -24.2328 5.60239 6.39425
upperneck 21.1215 7.53538 -7.98419
head 11.4559 2.8595 -2.72855
rclavicle -1.77043e-014 4.77083e-015
rhumerus -36.1943 -23.1035 -26.8178
rradius 33.1229
rwrist 5.3707
rhand -15.8346 -12.0908
rfingers 7.12502
rthumb 10.3597 -41.8156
lclavicle -1.77043e-014 4.77083e-015
lhumerus -16.0527 15.3672 28.765
lradius 27.9058
lwrist 22.9193
lhand -22.5433 0.773138
lfingers 7.12502
lthumb 3.88415 30.7175
rfemur -39.5629 20.9207 17.1364
rtibia 33.9064
rfoot -12.7856 -18.6016
rtoes 1.93503
lfemur -27.3898 -13.7711 -16.4928
ltibia 16.2467
lfoot -8.18361 6.51458
ltoes -14.4181
36
root 5.5712 15.6845 24.8613 182.669 -83.2083 -160.351
lowerback -16.4893 -0.275838 -2.91736
upperback -6.99671 -0.318693 -2.5339
thorax 1.78315 -0.349054 -1.07438
lowerneck -24.2133 5.53963 6.35005
upperneck 20.8722 7.47497 -8.08937
head 11.3569 2.82038 -2.76813
rclavicle -5.80203e-015 -2.38542e-014
rhumerus -36.0453 -24.0162 -24.6038
rradius 32.951
rwrist 5.03193
rhand -17.0234 -13.0591
rfingers 7.12502
rthumb 9.21278 -42.8378
lclavicle -5.80203e-015 -2.38542e-014
lhumerus -15.5744 16.6271 27.0257
lradius 28.5043
lwrist 23.6195
lhand -23.519 0.583181
lfingers 7.12502
lthumb 2.94186 30.5426
rfemur -40.0489 20.9967 17.0544
rtibia 33.9783
rfoot -12.6259 -18.3369
rtoes 1.75375
lfemur -27.8476 -13.692 -16.3501
ltibia 16.5537
lfoot -8.25273 6.86381
ltoes -14.5351
37
root 5.58752 15.6843 24.8583 183.383 -82.8565 -160.813
lowerback -16.3941 -0.316213 -3.14154
upperback -7.01557 -0.34677 -2.54462
thorax 1.71256 -0.360029 -0.962772
lowerneck -24.201 5.48663 6.31768
upperneck 20.6438 7.4303 -8.21724
head 11.2703 2.78566 -2.81534
rclavicle -1.64122e-014 6.36111e-015
rhumerus -35.905 -24.9865 -22.422
rradius 32.8018
rwrist 4.68476
rhand -18.1232 -14.1508
rfingers 7.12502
rthumb 8.15141 -43.9735
lclavicle -1.64122e-014 6.36111e-015
lhumerus -15.139 17.8309 25.3292
lradius 29.1143
lwrist 24.2701
lhand -24.4766 0.356416
lfingers 7.12502
lthumb 2.01706 30.3266
rfemur -40.5428 21.0548 16.9703
rtibia 34.0704
rfoot -12.4818 -18.0311
rtoes 1.60481
lfemur -28.2865 -13.598 -16.2246
ltibia 16.8438
lfoot -8.3155 7.21362
ltoes -14.6724
38
root 5.60407 15.6839 24.8556 184.157 -82.4853 -161.338
lowerback -16.2911 -0.35147 -3.36751
upperback -7.03327 -0.368614 -2.55778
thorax 1.63905 -0.367663 -0.851571
lowerneck -24.2075 5.44082 6.2894
upperneck 20.4564 7.39878 -8.3581
head 11.2048 2.7541 -2.86595
rclavicle -3.62782e-015 -2.54444e-014
rhumerus -35.7812 -25.9927 -20.28
rradius 32.6857
rwrist 4.31512
rhand -19.1452 -15.3249
rfingers 7.12502
rthumb 7.16502 -45.1836
lclavicle -3.62782e-015 -2.54444e-014
lhumerus -14.744 18.9586 23.6728
lradius 29.7242
lwrist 24.859
lhand -25.3899 0.109912
lfingers 7.12502
lthumb 1.13501 30.0866
rfemur -41.0473 21.0873 16.8869
rtibia 34.1848
rfoot -12.3552 -17.6796
rtoes 1.48164
lfemur -28.7047 -13.4749 -16.1214
ltibia 17.1112
lfoot -8.37317 7.54851
ltoes -14.8265
39
root 5.6207 15.6833 24.8534 185.002 -82.0893 -161.938
lowerback -16.1849 -0.373909 -3.58877
upperback -7.04762 -0.374504 -2.58017
thorax 1.56718 -0.367368 -0.749997
lowerneck -24.2514 5.39017 6.24217
upperneck 20.332 7.36639 -8.48761
head 11.1685 2.71973 -2.90981
rclavicle 1.75427e-014 -6.36111e-015
rhumerus -35.6867 -27.0171 -18.1824
rradius 32.5976
rwrist 3.94371
rhand -20.1506 -16.4654
rfingers 7.12502
rthumb 6.19444 -46.3548
lclavicle 1.75427e-014 -6.36111e-015
lhumerus -14.3707 20.0325 22.0659
lradius 30.3191
lwrist 25.347
lhand -26.261 -0.167158
lfingers 7.12502
lthumb 0.293687 29.8124
rfemur -41.5635 21.1022 16.7983
rtibia 34.3217
rfoot -12.2479 -17.2871
rtoes 1.39402
lfemur -29.0986 -13.3176 -16.0459
ltibia 17.3531
lfoot -8.42712 7.86749
ltoes -14.9837
40
root 5.63753 15.6824 24.8515 185.884 -81.6736 -162.581
lowerback -16.0771 -0.391174 -3.81141
upperback -7.05296 -0.372983 -2.60191
thorax 1.50378 -0.363026 -0.645817
lowerneck -24.347 5.34005 6.17187
upperneck 20.2782 7.34359 -8.61051
head 11.1678 2.68566 -2.94627
rclavicle -1.46604e-014 5.88403e-014
rhumerus -35.6038 -28.0326 -16.1489
rradius 32.5415
rwrist 3.57915
rhand -21.13 -17.5329
rfingers 7.12502
rthumb 5.24886 -47.4479
lclavicle -1.46604e-014 5.88403e-014
lhumerus -14.0273 21.0969 20.5087
lradius 30.8845
lwrist 25.7081
lhand -27.0808 -0.462014
lfingers 7.12502
lthumb -0.498088 29.5171
rfemur -42.0856 21.0893 16.7123
rtibia 34.4783
rfoot -12.1595 -16.8512
rtoes 1.34356
lfemur -29.4712 -13.1941 -15.9717
ltibia 17.5727
lfoot -8.4693 8.23466
ltoes -15.1178
